Coordinates
version=1
nRows=19
nColumns=33
inDegrees=yes

Units are S.I. units (second, meters, Newtons, ...)
Angles are in degrees.

endheader
time	ground_thorax_rot_x	ground_thorax_rot_y	ground_thorax_rot_z	ground_thorax_tx	ground_thorax_ty	ground_thorax_tz	clav_prot_r	clav_elev_r	scapula_abduction_r	scapula_elevation_r	scapula_upward_rot_r	scapula_winging_r	shoulder_elv_r	plane_of_elev_r	axial_rot_r	elbow_flexion_r	pro_sup_r	wrist_flex_r	wrist_dev_r	clav_prot_l	clav_elev_l	scapula_abduction_l	scapula_elevation_l	scapula_upward_rot_l	scapula_winging_l	shoulder_elv_l	plane_of_elev_l	axial_rot_l	elbow_flexion_l	pro_sup_l	wrist_flex_l	wrist_dev_l
      1.94000000	     22.30281076	     42.95622513	      6.38567830	      0.04623255	      1.02076116	     -0.05481482	    -26.58292727	     22.41438228	    -22.18254365	     14.14652597	     45.00000000	    -15.94804602	     83.36740092	    -72.99291965	    101.92097467	     78.33542863	    -35.17014425	     26.29112982	      0.20531194	     24.16814706	    -20.54309487	    -45.00000000	      2.05411188	    -23.36252525	     15.37337164	     35.17088683	     -4.13140540	    -17.39633572	     46.62348903	      5.92575146	     21.16644536	     -6.47515437
      1.95000000	     22.26754952	     43.12567417	      6.42978600	      0.04631733	      1.02073106	     -0.05495062	    -26.49707046	     22.42679724	    -22.03775800	     14.16589526	     45.00000000	    -15.90691021	     81.10772517	    -73.06635207	     99.75455483	     77.41889913	    -36.83335712	     25.85470217	      0.52757306	     24.28529409	    -21.07871114	    -45.00000000	      1.96239254	    -24.82316858	     15.09572889	     35.90087316	     -2.32407044	    -16.47574505	     44.72036501	      5.40695658	     22.39072290	     -8.17012513
      1.96000000	     22.19388187	     43.24173846	      6.34784467	      0.04634555	      1.02037101	     -0.05522986	    -26.48673622	     22.44163077	    -22.03283808	     14.17894217	     45.00000000	    -15.90033759	     78.02905812	    -72.89930907	     96.92216050	     76.54355252	    -39.26436664	     25.28513478	      1.18550582	     24.37726259	    -21.51736782	    -45.00000000	      1.63542207	    -26.71070058	     14.88279568	     37.13068167	     -0.07732764	    -16.07021968	     43.70570249	      5.71552387	     22.11444415	     -6.18937716
      1.97000000	     21.88901455	     43.12392126	      6.41450032	      0.04664755	      1.02090901	     -0.05530169	    -26.42272569	     21.86344940	    -21.44960526	     13.72373484	     45.00000000	    -15.92721228	     76.96816393	    -72.83427707	     96.19158803	     75.57657049	    -39.87952750	     24.95266315	      1.15410773	     24.43655110	    -21.91080016	    -45.00000000	      1.79630859	    -27.14249626	     14.65979499	     37.48006314	      0.52818929	    -15.04827119	     42.33342463	      5.43528916	     22.17333424	     -6.74621230
      1.98000000	     22.03501817	     43.40442087	      6.43607190	      0.04652727	      1.02007784	     -0.05551455	    -26.32865362	     22.54066084	    -21.83515777	     14.27623859	     45.00000000	    -15.81599377	     72.30159297	    -72.56301560	     91.90205511	     74.50157083	    -43.61430590	     24.36276289	      1.99547258	     24.50267725	    -22.50933963	    -45.00000000	      1.27215189	    -29.92483557	     14.35449458	     39.13780854	      3.57542162	    -14.48374669	     40.46757507	      5.00435067	     23.37359098	     -7.16423392
      1.99000000	     21.79826562	     43.38181238	      6.41589913	      0.04693724	      1.02057554	     -0.05582220	    -26.26673468	     21.95100580	    -21.24209381	     13.81166875	     45.00000000	    -15.85343764	     71.61279024	    -72.53941171	     91.48688347	     73.38327591	    -43.77832427	     24.12102202	      1.74549979	     24.54869591	    -22.83736691	    -45.00000000	      1.46703477	    -30.11701688	     14.16113031	     39.32893095	      3.99301645	    -13.70610485	     39.48201342	      5.11975077	     22.85899042	     -6.65135559
      2.00000000	     22.06796018	     43.49390403	      6.27890741	      0.04677399	      1.01960934	     -0.05598843	    -26.05371324	     22.70038514	    -21.47846544	     14.43547830	     45.00000000	    -15.67263573	     66.63848331	    -72.15087772	     86.89527069	     72.10844109	    -46.16607872	     23.92263933	      2.24590229	     24.55021640	    -23.47946685	    -45.00000000	      0.95039333	    -32.96876482	     13.80968249	     41.18138813	      7.01982471	    -13.00005278	     37.82850485	      5.20226021	     23.05350711	     -6.53295213
      2.01000000	     21.82453916	     43.53204467	      6.47912418	      0.04715554	      1.01988268	     -0.05626184	    -25.96565581	     22.30819861	    -20.99789458	     14.13058985	     45.00000000	    -15.67711324	     66.27412351	    -72.03054234	     86.91318957	     71.03679844	    -46.24219545	     23.50427844	      2.00940177	     24.60117809	    -23.79824091	    -45.00000000	      1.20870640	    -32.96423471	     13.62101329	     41.34869040	      7.03134150	    -12.74572287	     36.91506648	      5.30017101	     22.94605440	     -6.29100303
      2.02000000	     21.74703602	     43.60239752	      6.49251495	      0.04758236	      1.02019176	     -0.05667910	    -25.92661258	     21.91014158	    -20.60396389	     13.81611177	     45.00000000	    -15.70685508	     65.91479785	    -71.84292766	     86.80270045	     69.94041375	    -46.37811305	     23.13949050	      1.81806012	     24.65295858	    -24.12668365	    -45.00000000	      1.46814221	    -32.98057797	     13.42670782	     41.41984414	      7.18864588	    -12.45535625	     36.01078737	      5.37366807	     22.79368958	     -6.07567101
      2.03000000	     21.72924526	     43.39875813	      6.43202405	      0.04776755	      1.01978518	     -0.05683243	    -25.70932539	     22.43446022	    -20.64206127	     14.26088095	     45.00000000	    -15.55061650	     60.46885862	    -71.28509753	     82.00500651	     68.35930190	    -48.41068241	     22.95035297	      1.96649527	     24.59509280	    -24.43593986	    -45.00000000	      1.00795651	    -34.93719171	     13.24965970	     41.85849379	      9.42342704	    -11.29056655	     33.40221365	     -6.50004563	     26.91176548	     -5.08457824
      2.04000000	     21.66957012	     43.28655303	      6.54213587	      0.04789593	      1.01907700	     -0.05723389	    -25.14283321	     22.65598136	    -19.80268908	     14.50188448	     45.00000000	    -15.28299571	     58.04304020	    -71.70316423	     79.88442506	     66.90285201	    -48.73607362	     23.16557259	      1.93762759	     24.54821181	    -24.45580377	    -45.00000000	      0.75361186	    -35.68296834	     13.23620497	     42.06486488	     10.56252700	    -10.70967616	     32.60088333	     -4.47087079	     26.10647070	     -4.85107661
      2.05000000	     21.58182071	     43.38794497	      6.55128612	      0.04826303	      1.01935949	     -0.05749742	    -25.16425781	     22.31634729	    -19.56402167	     14.22584959	     45.00000000	    -15.33107605	     57.66628791	    -71.38636285	     79.85723391	     65.86585965	    -48.83512280	     22.68920189	      1.72281158	     24.60676252	    -24.78613191	    -45.00000000	      1.03904730	    -35.62949647	     13.03836304	     42.30332475	     10.57392511	    -10.58043279	     31.73506026	     -4.34924954	     25.85431403	     -4.76255063
      2.06000000	     21.50622774	     43.57581515	      6.27214449	      0.04898579	      1.01996965	     -0.05751185	    -25.40312100	     21.78005224	    -19.56414025	     13.76955440	     45.00000000	    -15.49244829	     56.89661821	    -71.02935314	     79.32757911	     64.74267765	    -49.06937971	     22.35438640	      1.49247830	     24.65562500	    -25.11662933	    -45.00000000	      1.27597350	    -35.71462802	     12.84130374	     42.68418215	     10.84822824	     -9.93098259	     30.88282928	     -4.11881815	     25.21245092	     -4.81191109
      2.07000000	     21.63910742	     43.58221371	      6.18512359	      0.04941143	      1.02008040	     -0.05780637	    -25.31993232	     21.62252674	    -19.29273020	     13.65158750	     45.00000000	    -15.47033115	     56.40144279	    -70.68791954	     79.17515340	     63.71688773	    -49.21357462	     22.03557469	      1.31461889	     24.70228829	    -25.43940466	    -45.00000000	      1.49676288	    -35.82742002	     12.64564438	     42.88065172	     10.99880987	     -9.88046428	     30.10103097	     -3.85084916	     25.01267213	     -4.61308135
      2.08000000	     21.68170151	     43.70168452	      6.06068159	      0.04985881	      1.02020113	     -0.05810358	    -25.32131317	     21.40355635	    -19.12257045	     13.47573178	     45.00000000	    -15.49963646	     55.85725685	    -70.43240488	     78.90794702	     62.67363872	    -49.37750630	     21.77231176	      1.11648438	     24.74158527	    -25.71962932	    -45.00000000	      1.67905337	    -35.94843368	     12.47413337	     43.09563611	     11.20462120	     -9.61679806	     29.40912106	     -3.59659354	     24.71523598	     -4.45169135
      2.09000000	     22.04723300	     43.66991632	      6.02799990	      0.04978834	      1.01876900	     -0.05752777	    -24.76137442	     23.08998070	    -19.47091485	     14.89423114	     45.00000000	    -15.06580098	     48.37919957	    -69.70858946	     72.40982892	     60.64232845	    -51.23382890	     22.52723670	      0.98420142	     24.49738381	    -26.48731240	    -45.00000000	      0.80241573	    -40.08810494	     11.99292428	     46.20041644	     14.60040447	     -7.60174921	     28.40284556	     -0.77225863	     25.29467894	     -5.11152587
      2.10000000	     21.76633146	     43.64420375	      6.07471383	      0.05025775	      1.01905775	     -0.05772050	    -24.69936104	     22.62319928	    -18.96952597	     14.52386321	     45.00000000	    -15.10146239	     47.95324486	    -69.74401335	     72.35905912	     59.59293265	    -51.19849482	     21.83316051	      0.86458703	     24.48943094	    -26.49523196	    -45.00000000	      0.77741395	    -40.17537342	     11.98573861	     46.37342670	     14.74717427	     -7.17958476	     27.82115771	     -0.74406746	     25.15767102	     -5.06047453
      2.11000000	     21.79045532	     43.74055325	      5.92872815	      0.05075399	      1.01918798	     -0.05794044	    -24.70016292	     22.41757952	    -18.80183063	     14.35796642	     45.00000000	    -15.12958328	     47.36621863	    -69.52842802	     72.16664765	     58.53497970	    -51.17899086	     21.64936699	      0.70005671	     24.49764944	    -26.67457436	    -45.00000000	      0.84666701	    -40.38564750	     11.87407205	     46.60194205	     15.07090113	     -6.84676837	     27.11429989	     -0.52565403	     24.85144746	     -4.92321322
      2.12000000	     21.97332212	     43.77206212	      5.76731311	      0.05132543	      1.01901508	     -0.05830170	    -24.59042311	     22.35997477	    -18.55322949	     14.32330277	     45.00000000	    -15.09678084	     47.09175427	    -69.34213011	     72.28917906	     57.66254879	    -51.19963045	     21.37385572	      0.55926219	     24.51913592	    -26.84493537	    -45.00000000	      0.95599545	    -40.46533503	     11.77023687	     46.66314678	     15.14398585	     -6.87534966	     26.70357835	     -0.39075052	     24.80257968	     -4.80276965
